<?xml version="1.0" encoding="UTF-8"?>
<svg xmlns="http://www.w3.org/2000/svg" version="1.1" width="300px" height="300px" viewBox="0 0 11 11">
  <g stroke="black" stroke-width=".2" stroke-linecap="round">
    <line x1="0.5" y1="1.5" x2="1.5" y2="1.5" />
    <line x1="0.5" y1="0.5" x2="0.5" y2="1.5" />
    <line x1="1.5" y1="0.5" x2="2.5" y2="0.5" />
    <line x1="2.5" y1="0.5" x2="2.5" y2="1.5" />
    <line x1="2.5" y1="0.5" x2="3.5" y2="0.5" />
    <line x1="2.5" y1="1.5" x2="3.5" y2="1.5" />
    <line x1="2.5" y1="0.5" x2="2.5" y2="1.5" />
    <line x1="3.5" y1="0.5" x2="4.5" y2="0.5" />
    <line x1="4.5" y1="0.5" x2="5.5" y2="0.5" />
    <line x1="5.5" y1="0.5" x2="6.5" y2="0.5" />
    <line x1="6.5" y1="0.5" x2="6.5" y2="1.5" />
    <line x1="5.5" y1="1.5" x2="6.5" y2="1.5" />
    <line x1="6.5" y1="0.5" x2="7.5" y2="0.5" />
    <line x1="7.5" y1="0.5" x2="7.5" y2="1.5" />
    <line x1="6.5" y1="0.5" x2="6.5" y2="1.5" />
    <line x1="7.5" y1="0.5" x2="8.5" y2="0.5" />
    <line x1="8.5" y1="0.5" x2="8.5" y2="1.5" />
    <line x1="7.5" y1="0.5" x2="7.5" y2="1.5" />
    <line x1="8.5" y1="0.5" x2="9.5" y2="0.5" />
    <line x1="8.5" y1="0.5" x2="8.5" y2="1.5" />
    <line x1="9.5" y1="0.5" x2="10.5" y2="0.5" />
    <line x1="10.5" y1="0.5" x2="10.5" y2="1.5" />
    <line x1="9.5" y1="1.5" x2="10.5" y2="1.5" />
    <line x1="0.5" y1="1.5" x2="1.5" y2="1.5" />
    <line x1="0.5" y1="2.5" x2="1.5" y2="2.5" />
    <line x1="0.5" y1="1.5" x2="0.5" y2="2.5" />
    <line x1="2.5" y1="1.5" x2="3.5" y2="1.5" />
    <line x1="3.5" y1="1.5" x2="3.5" y2="2.5" />
    <line x1="2.5" y1="2.5" x2="3.5" y2="2.5" />
    <line x1="4.5" y1="1.5" x2="4.5" y2="2.5" />
    <line x1="3.5" y1="2.5" x2="4.5" y2="2.5" />
    <line x1="3.5" y1="1.5" x2="3.5" y2="2.5" />
    <line x1="4.5" y1="2.5" x2="5.5" y2="2.5" />
    <line x1="4.5" y1="1.5" x2="4.5" y2="2.5" />
    <line x1="5.5" y1="1.5" x2="6.5" y2="1.5" />
    <line x1="6.5" y1="1.5" x2="6.5" y2="2.5" />
    <line x1="6.5" y1="1.5" x2="6.5" y2="2.5" />
    <line x1="7.5" y1="2.5" x2="8.5" y2="2.5" />
    <line x1="8.5" y1="2.5" x2="9.5" y2="2.5" />
    <line x1="9.5" y1="1.5" x2="10.5" y2="1.5" />
    <line x1="10.5" y1="1.5" x2="10.5" y2="2.5" />
    <line x1="9.5" y1="2.5" x2="10.5" y2="2.5" />
    <line x1="0.5" y1="2.5" x2="1.5" y2="2.5" />
    <line x1="0.5" y1="3.5" x2="1.5" y2="3.5" />
    <line x1="0.5" y1="2.5" x2="0.5" y2="3.5" />
    <line x1="1.5" y1="3.5" x2="2.5" y2="3.5" />
    <line x1="2.5" y1="2.5" x2="3.5" y2="2.5" />
    <line x1="2.5" y1="3.5" x2="3.5" y2="3.5" />
    <line x1="3.5" y1="2.5" x2="4.5" y2="2.5" />
    <line x1="4.5" y1="2.5" x2="5.5" y2="2.5" />
    <line x1="6.5" y1="2.5" x2="6.5" y2="3.5" />
    <line x1="5.5" y1="3.5" x2="6.5" y2="3.5" />
    <line x1="6.5" y1="2.5" x2="6.5" y2="3.5" />
    <line x1="7.5" y1="2.5" x2="8.5" y2="2.5" />
    <line x1="7.5" y1="3.5" x2="8.5" y2="3.5" />
    <line x1="8.5" y1="2.5" x2="9.5" y2="2.5" />
    <line x1="9.5" y1="2.5" x2="9.5" y2="3.5" />
    <line x1="9.5" y1="2.5" x2="10.5" y2="2.5" />
    <line x1="10.5" y1="2.5" x2="10.5" y2="3.5" />
    <line x1="9.5" y1="2.5" x2="9.5" y2="3.5" />
    <line x1="0.5" y1="3.5" x2="1.5" y2="3.5" />
    <line x1="0.5" y1="4.5" x2="1.5" y2="4.5" />
    <line x1="0.5" y1="3.5" x2="0.5" y2="4.5" />
    <line x1="2.5" y1="3.5" x2="3.5" y2="3.5" />
    <line x1="3.5" y1="3.5" x2="3.5" y2="4.5" />
    <line x1="2.5" y1="4.5" x2="3.5" y2="4.5" />
    <line x1="4.5" y1="3.5" x2="4.5" y2="4.5" />
    <line x1="3.5" y1="3.5" x2="3.5" y2="4.5" />
    <line x1="5.5" y1="3.5" x2="5.5" y2="4.5" />
    <line x1="4.5" y1="3.5" x2="4.5" y2="4.5" />
    <line x1="5.5" y1="3.5" x2="6.5" y2="3.5" />
    <line x1="5.5" y1="3.5" x2="5.5" y2="4.5" />
    <line x1="7.5" y1="3.5" x2="7.5" y2="4.5" />
    <line x1="6.5" y1="4.5" x2="7.5" y2="4.5" />
    <line x1="7.5" y1="3.5" x2="8.5" y2="3.5" />
    <line x1="8.5" y1="3.5" x2="8.5" y2="4.5" />
    <line x1="7.5" y1="3.5" x2="7.5" y2="4.5" />
    <line x1="8.5" y1="4.5" x2="9.5" y2="4.5" />
    <line x1="8.5" y1="3.5" x2="8.5" y2="4.5" />
    <line x1="10.5" y1="3.5" x2="10.5" y2="4.5" />
    <line x1="9.5" y1="4.5" x2="10.5" y2="4.5" />
    <line x1="0.5" y1="4.5" x2="1.5" y2="4.5" />
    <line x1="1.5" y1="4.5" x2="1.5" y2="5.5" />
    <line x1="0.5" y1="4.5" x2="0.5" y2="5.5" />
    <line x1="2.5" y1="4.5" x2="2.5" y2="5.5" />
    <line x1="1.5" y1="4.5" x2="1.5" y2="5.5" />
    <line x1="2.5" y1="4.5" x2="3.5" y2="4.5" />
    <line x1="2.5" y1="5.5" x2="3.5" y2="5.5" />
    <line x1="2.5" y1="4.5" x2="2.5" y2="5.5" />
    <line x1="4.5" y1="4.5" x2="4.5" y2="5.5" />
    <line x1="5.5" y1="4.5" x2="5.5" y2="5.5" />
    <line x1="4.5" y1="5.5" x2="5.5" y2="5.5" />
    <line x1="4.5" y1="4.5" x2="4.5" y2="5.5" />
    <line x1="5.5" y1="4.5" x2="5.5" y2="5.5" />
    <line x1="6.5" y1="4.5" x2="7.5" y2="4.5" />
    <line x1="8.5" y1="4.5" x2="8.5" y2="5.5" />
    <line x1="7.5" y1="5.5" x2="8.5" y2="5.5" />
    <line x1="8.5" y1="4.5" x2="9.5" y2="4.5" />
    <line x1="8.5" y1="4.5" x2="8.5" y2="5.5" />
    <line x1="9.5" y1="4.5" x2="10.5" y2="4.5" />
    <line x1="10.5" y1="4.5" x2="10.5" y2="5.5" />
    <line x1="0.5" y1="5.5" x2="0.5" y2="6.5" />
    <line x1="2.5" y1="5.5" x2="2.5" y2="6.5" />
    <line x1="2.5" y1="5.5" x2="3.5" y2="5.5" />
    <line x1="3.5" y1="5.5" x2="3.5" y2="6.5" />
    <line x1="2.5" y1="5.5" x2="2.5" y2="6.5" />
    <line x1="4.5" y1="5.5" x2="4.5" y2="6.5" />
    <line x1="3.5" y1="5.5" x2="3.5" y2="6.5" />
    <line x1="4.5" y1="5.5" x2="5.5" y2="5.5" />
    <line x1="4.5" y1="6.5" x2="5.5" y2="6.5" />
    <line x1="4.5" y1="5.5" x2="4.5" y2="6.5" />
    <line x1="6.5" y1="5.5" x2="6.5" y2="6.5" />
    <line x1="6.5" y1="6.5" x2="7.5" y2="6.5" />
    <line x1="6.5" y1="5.5" x2="6.5" y2="6.5" />
    <line x1="7.5" y1="5.5" x2="8.5" y2="5.5" />
    <line x1="9.5" y1="5.5" x2="9.5" y2="6.5" />
    <line x1="8.5" y1="6.5" x2="9.5" y2="6.5" />
    <line x1="10.5" y1="5.5" x2="10.5" y2="6.5" />
    <line x1="9.5" y1="6.5" x2="10.5" y2="6.5" />
    <line x1="9.5" y1="5.5" x2="9.5" y2="6.5" />
    <line x1="1.5" y1="6.5" x2="1.5" y2="7.5" />
    <line x1="0.5" y1="7.5" x2="1.5" y2="7.5" />
    <line x1="0.5" y1="6.5" x2="0.5" y2="7.5" />
    <line x1="1.5" y1="6.5" x2="1.5" y2="7.5" />
    <line x1="3.5" y1="7.5" x2="4.5" y2="7.5" />
    <line x1="4.5" y1="6.5" x2="5.5" y2="6.5" />
    <line x1="5.5" y1="6.5" x2="5.5" y2="7.5" />
    <line x1="4.5" y1="7.5" x2="5.5" y2="7.5" />
    <line x1="6.5" y1="6.5" x2="6.5" y2="7.5" />
    <line x1="5.5" y1="7.5" x2="6.5" y2="7.5" />
    <line x1="5.5" y1="6.5" x2="5.5" y2="7.5" />
    <line x1="6.5" y1="6.5" x2="7.5" y2="6.5" />
    <line x1="6.5" y1="7.5" x2="7.5" y2="7.5" />
    <line x1="6.5" y1="6.5" x2="6.5" y2="7.5" />
    <line x1="8.5" y1="6.5" x2="8.5" y2="7.5" />
    <line x1="8.5" y1="6.5" x2="9.5" y2="6.5" />
    <line x1="8.5" y1="7.5" x2="9.5" y2="7.5" />
    <line x1="8.5" y1="6.5" x2="8.5" y2="7.5" />
    <line x1="9.5" y1="6.5" x2="10.5" y2="6.5" />
    <line x1="10.5" y1="6.5" x2="10.5" y2="7.5" />
    <line x1="0.5" y1="7.5" x2="1.5" y2="7.5" />
    <line x1="0.5" y1="8.5" x2="1.5" y2="8.5" />
    <line x1="0.5" y1="7.5" x2="0.5" y2="8.5" />
    <line x1="2.5" y1="7.5" x2="2.5" y2="8.5" />
    <line x1="1.5" y1="8.5" x2="2.5" y2="8.5" />
    <line x1="2.5" y1="8.5" x2="3.5" y2="8.5" />
    <line x1="2.5" y1="7.5" x2="2.5" y2="8.5" />
    <line x1="3.5" y1="7.5" x2="4.5" y2="7.5" />
    <line x1="4.5" y1="7.5" x2="4.5" y2="8.5" />
    <line x1="4.5" y1="7.5" x2="5.5" y2="7.5" />
    <line x1="4.5" y1="8.5" x2="5.5" y2="8.5" />
    <line x1="4.5" y1="7.5" x2="4.5" y2="8.5" />
    <line x1="5.5" y1="7.5" x2="6.5" y2="7.5" />
    <line x1="5.5" y1="8.5" x2="6.5" y2="8.5" />
    <line x1="6.5" y1="7.5" x2="7.5" y2="7.5" />
    <line x1="7.5" y1="7.5" x2="7.5" y2="8.5" />
    <line x1="7.5" y1="7.5" x2="7.5" y2="8.5" />
    <line x1="8.5" y1="7.5" x2="9.5" y2="7.5" />
    <line x1="9.5" y1="7.5" x2="9.5" y2="8.5" />
    <line x1="8.5" y1="8.5" x2="9.5" y2="8.5" />
    <line x1="10.5" y1="7.5" x2="10.5" y2="8.5" />
    <line x1="9.5" y1="7.5" x2="9.5" y2="8.5" />
    <line x1="0.5" y1="8.5" x2="1.5" y2="8.5" />
    <line x1="0.5" y1="8.5" x2="0.5" y2="9.5" />
    <line x1="1.5" y1="8.5" x2="2.5" y2="8.5" />
    <line x1="1.5" y1="9.5" x2="2.5" y2="9.5" />
    <line x1="2.5" y1="8.5" x2="3.5" y2="8.5" />
    <line x1="2.5" y1="9.5" x2="3.5" y2="9.5" />
    <line x1="3.5" y1="9.5" x2="4.5" y2="9.5" />
    <line x1="4.5" y1="8.5" x2="5.5" y2="8.5" />
    <line x1="5.5" y1="8.5" x2="6.5" y2="8.5" />
    <line x1="5.5" y1="9.5" x2="6.5" y2="9.5" />
    <line x1="7.5" y1="9.5" x2="8.5" y2="9.5" />
    <line x1="8.5" y1="8.5" x2="9.5" y2="8.5" />
    <line x1="9.5" y1="8.5" x2="9.5" y2="9.5" />
    <line x1="10.5" y1="8.5" x2="10.5" y2="9.5" />
    <line x1="9.5" y1="8.5" x2="9.5" y2="9.5" />
    <line x1="1.5" y1="9.5" x2="1.5" y2="10.5" />
    <line x1="0.5" y1="10.5" x2="1.5" y2="10.5" />
    <line x1="0.5" y1="9.5" x2="0.5" y2="10.5" />
    <line x1="1.5" y1="9.5" x2="2.5" y2="9.5" />
    <line x1="1.5" y1="10.5" x2="2.5" y2="10.5" />
    <line x1="1.5" y1="9.5" x2="1.5" y2="10.5" />
    <line x1="2.5" y1="9.5" x2="3.5" y2="9.5" />
    <line x1="2.5" y1="10.5" x2="3.5" y2="10.5" />
    <line x1="3.5" y1="9.5" x2="4.5" y2="9.5" />
    <line x1="3.5" y1="10.5" x2="4.5" y2="10.5" />
    <line x1="4.5" y1="10.5" x2="5.5" y2="10.5" />
    <line x1="5.5" y1="9.5" x2="6.5" y2="9.5" />
    <line x1="6.5" y1="9.5" x2="6.5" y2="10.5" />
    <line x1="5.5" y1="10.5" x2="6.5" y2="10.5" />
    <line x1="7.5" y1="9.5" x2="7.5" y2="10.5" />
    <line x1="6.5" y1="10.5" x2="7.5" y2="10.5" />
    <line x1="6.5" y1="9.5" x2="6.5" y2="10.5" />
    <line x1="7.5" y1="9.5" x2="8.5" y2="9.5" />
    <line x1="7.5" y1="10.5" x2="8.5" y2="10.5" />
    <line x1="7.5" y1="9.5" x2="7.5" y2="10.5" />
    <line x1="8.5" y1="10.5" x2="9.5" y2="10.5" />
    <line x1="10.5" y1="9.5" x2="10.5" y2="10.5" />
  </g>
</svg>
